<svg width="24" height="22" viewBox="0 0 24 22" fill="none" xmlns="http://www.w3.org/2000/svg">
<path d="M23.693 9.7058L18.963 1.5214C18.5536 0.810799 17.5464 0.2272 16.7228 0.2272H7.2725C6.4535 0.2272 5.4417 0.810799 5.0323 1.5214L0.307003 9.7058C-0.102497 10.4164 -0.102497 11.5788 0.307003 12.2895L5.0322 20.4785C5.4416 21.1892 6.4488 21.7728 7.2724 21.7728H16.7274C17.5464 21.7728 18.5534 21.1892 18.9676 20.4786L23.6928 12.2896C24.1023 11.5789 24.1025 10.4164 23.693 9.7058ZM10.9763 4.7547C10.9763 4.2182 11.414 3.7805 11.9505 3.7805C12.487 3.7805 12.9247 4.2182 12.9247 4.7547V10.5764C12.9247 11.113 12.487 11.5506 11.9505 11.5506C11.414 11.5506 10.9763 11.113 10.9763 10.5764V4.7547ZM11.9505 17.1841C8.3078 17.1841 5.3428 14.2191 5.3428 10.5764C5.3475 8.4868 6.3358 6.5243 8.0113 5.2724C8.10266 5.20414 8.20661 5.15461 8.31717 5.12665C8.42774 5.09868 8.54274 5.09284 8.65556 5.10945C8.76839 5.12607 8.87682 5.16481 8.97463 5.22346C9.07244 5.28211 9.1577 5.3595 9.2255 5.4512C9.29378 5.54256 9.34332 5.64652 9.37129 5.75709C9.39927 5.86766 9.40511 5.98267 9.3885 6.09551C9.37188 6.20835 9.33313 6.3168 9.27448 6.41461C9.21582 6.51243 9.13841 6.59769 9.0467 6.6655C6.8865 8.2703 6.4347 11.3247 8.0395 13.4849C9.6444 15.6452 12.6988 16.0969 14.859 14.4921C16.0968 13.5744 16.8263 12.1201 16.8263 10.5764C16.8243 9.8126 16.6436 9.05987 16.2987 8.37835C15.9539 7.69684 15.4544 7.10543 14.8402 6.6514C14.4542 6.369 14.3742 5.823 14.6566 5.4371C14.939 5.0511 15.4849 4.9711 15.8709 5.2536C17.5604 6.5007 18.5535 8.4774 18.5582 10.5764C18.5582 14.2238 15.5932 17.1841 11.9505 17.1841Z" fill="#72B545"/>
</svg>
