<svg width="234" height="27" viewBox="0 0 234 27" fill="none" xmlns="http://www.w3.org/2000/svg">
<g clip-path="url(#clip0_1_2)">
<path d="M1.2 26.872V0.247999H6.736V1.688H2.992V25.304H6.736V26.872H1.2ZM6.0875 4.6H9.7355L16.3275 10.808V15.64L10.1195 9.784V23H6.0875V4.6ZM28.1355 4.6H24.5195L17.8955 10.808V15.64L24.1035 9.784V23H28.1355V4.6ZM33.053 26.872H27.485V25.368H31.197V1.656H27.485V0.247999H33.053V26.872Z" fill="#00ADB5"/>
<path d="M48.4414 6.78125H50.6289L54.7402 17.748L58.8418 6.78125H61.0293L55.5996 21H53.8613L48.4414 6.78125ZM47.4453 6.78125H49.5254L49.8867 16.2734V21H47.4453V6.78125ZM59.9453 6.78125H62.0352V21H59.584V16.2734L59.9453 6.78125ZM68.1625 6.78125V21H65.7113V6.78125H68.1625ZM80.2078 16.3711H82.6492C82.5711 17.3021 82.3107 18.1322 81.868 18.8613C81.4253 19.584 80.8035 20.1536 80.0027 20.5703C79.202 20.987 78.2286 21.1953 77.0828 21.1953C76.2039 21.1953 75.4129 21.0391 74.7098 20.7266C74.0066 20.4076 73.4044 19.9583 72.9031 19.3789C72.4018 18.793 72.0177 18.0866 71.7508 17.2598C71.4904 16.4329 71.3602 15.5085 71.3602 14.4863V13.3047C71.3602 12.2826 71.4936 11.3581 71.7605 10.5312C72.034 9.70443 72.4246 8.99805 72.9324 8.41211C73.4402 7.81966 74.049 7.36719 74.7586 7.05469C75.4747 6.74219 76.2788 6.58594 77.1707 6.58594C78.3035 6.58594 79.2605 6.79427 80.0418 7.21094C80.823 7.6276 81.4285 8.20378 81.8582 8.93945C82.2944 9.67513 82.5613 10.5182 82.659 11.4688H80.2176C80.1525 10.8568 80.0092 10.3327 79.7879 9.89648C79.573 9.46029 79.254 9.12826 78.8309 8.90039C78.4077 8.66602 77.8543 8.54883 77.1707 8.54883C76.6108 8.54883 76.1225 8.65299 75.7059 8.86133C75.2892 9.06966 74.9409 9.37565 74.6609 9.7793C74.381 10.1829 74.1694 10.681 74.0262 11.2734C73.8895 11.8594 73.8211 12.5299 73.8211 13.2852V14.4863C73.8211 15.2025 73.8829 15.8535 74.0066 16.4395C74.1368 17.0189 74.3322 17.5169 74.5926 17.9336C74.8595 18.3503 75.198 18.6725 75.6082 18.9004C76.0184 19.1283 76.5099 19.2422 77.0828 19.2422C77.7794 19.2422 78.3426 19.1315 78.7723 18.9102C79.2085 18.6888 79.5372 18.3665 79.7586 17.9434C79.9865 17.5137 80.1362 16.9896 80.2078 16.3711ZM94.8703 12.7188V14.6621H87.3215V12.7188H94.8703ZM87.927 6.78125V21H85.4758V6.78125H87.927ZM96.7551 6.78125V21H94.3137V6.78125H96.7551ZM105.988 8.67578L101.74 21H99.1715L104.523 6.78125H106.164L105.988 8.67578ZM109.543 21L105.285 8.67578L105.099 6.78125H106.75L112.121 21H109.543ZM109.338 15.7266V17.6699H101.603V15.7266H109.338ZM123.219 19.0566V21H116.08V19.0566H123.219ZM116.764 6.78125V21H114.312V6.78125H116.764ZM133.194 17.3379C133.194 17.0449 133.148 16.7845 133.057 16.5566C132.972 16.3288 132.819 16.1204 132.598 15.9316C132.377 15.7428 132.064 15.5605 131.661 15.3848C131.263 15.2025 130.756 15.0169 130.137 14.8281C129.46 14.6198 128.835 14.3887 128.262 14.1348C127.696 13.8743 127.201 13.5749 126.778 13.2363C126.355 12.8913 126.026 12.4974 125.791 12.0547C125.557 11.6055 125.44 11.0879 125.44 10.502C125.44 9.92253 125.56 9.39518 125.801 8.91992C126.049 8.44466 126.397 8.03451 126.846 7.68945C127.302 7.33789 127.839 7.06771 128.457 6.87891C129.076 6.68359 129.76 6.58594 130.508 6.58594C131.563 6.58594 132.471 6.78125 133.233 7.17188C134.001 7.5625 134.59 8.08659 135 8.74414C135.417 9.40169 135.625 10.1276 135.625 10.9219H133.194C133.194 10.4531 133.093 10.0397 132.891 9.68164C132.696 9.31706 132.396 9.0306 131.993 8.82227C131.595 8.61393 131.091 8.50977 130.479 8.50977C129.899 8.50977 129.418 8.59766 129.034 8.77344C128.649 8.94922 128.363 9.18685 128.174 9.48633C127.985 9.78581 127.891 10.1243 127.891 10.502C127.891 10.7689 127.953 11.013 128.077 11.2344C128.2 11.4492 128.389 11.651 128.643 11.8398C128.897 12.0221 129.216 12.1947 129.6 12.3574C129.984 12.5202 130.437 12.6764 130.957 12.8262C131.745 13.0605 132.432 13.321 133.018 13.6074C133.604 13.8874 134.092 14.2064 134.483 14.5645C134.873 14.9225 135.166 15.3294 135.362 15.7852C135.557 16.2344 135.655 16.7454 135.655 17.3184C135.655 17.9173 135.534 18.4577 135.293 18.9395C135.052 19.4147 134.707 19.8216 134.258 20.1602C133.815 20.4922 133.282 20.7493 132.657 20.9316C132.038 21.1074 131.348 21.1953 130.586 21.1953C129.903 21.1953 129.229 21.1042 128.565 20.9219C127.907 20.7396 127.308 20.4629 126.768 20.0918C126.228 19.7142 125.798 19.2454 125.479 18.6855C125.16 18.1191 125 17.4583 125 16.7031H127.452C127.452 17.1654 127.53 17.5592 127.686 17.8848C127.849 18.2103 128.073 18.4772 128.36 18.6855C128.646 18.8874 128.978 19.0371 129.356 19.1348C129.74 19.2324 130.15 19.2812 130.586 19.2812C131.159 19.2812 131.638 19.1999 132.022 19.0371C132.412 18.8743 132.705 18.6465 132.901 18.3535C133.096 18.0605 133.194 17.722 133.194 17.3379ZM140.874 6.78125V21H138.423V6.78125H140.874ZM149.419 6.78125L143.657 13.627L140.376 17.1035L139.946 14.6719L142.29 11.7812L146.43 6.78125H149.419ZM146.782 21L142.104 14.2617L143.794 12.5918L149.692 21H146.782ZM154.277 6.78125V21H151.825V6.78125H154.277ZM158.617 6.78125H159.447L165.072 19.8672L170.697 6.78125H171.527L165.375 21H164.759L158.617 6.78125ZM158.373 6.78125H159.115L159.164 14.3887V21H158.373V6.78125ZM171.048 6.78125H171.791V21H171V14.3887L171.048 6.78125ZM180.672 7.38672L175.613 21H174.773L180.115 6.78125H180.77L180.672 7.38672ZM185.457 21L180.408 7.38672L180.311 6.78125H180.955L186.307 21H185.457ZM184.207 16.127V16.8594H176.912V16.127H184.207ZM189.084 6.78125H193.645C194.582 6.78125 195.406 6.94076 196.116 7.25977C196.825 7.57878 197.379 8.04427 197.776 8.65625C198.179 9.26823 198.381 10.0202 198.381 10.9121C198.381 11.5957 198.235 12.2142 197.942 12.7676C197.649 13.321 197.252 13.7799 196.75 14.1445C196.249 14.5026 195.683 14.737 195.051 14.8477L194.709 14.9746H189.465L189.446 14.252H194.045C194.833 14.252 195.487 14.0924 196.008 13.7734C196.536 13.4544 196.929 13.041 197.19 12.5332C197.457 12.0189 197.59 11.4785 197.59 10.9121C197.59 10.2025 197.431 9.59701 197.112 9.0957C196.799 8.58789 196.347 8.19727 195.754 7.92383C195.168 7.64388 194.465 7.50391 193.645 7.50391H189.875V21H189.084V6.78125ZM198.137 21L194.329 14.6914L195.207 14.6816L198.977 20.8633V21H198.137ZM211.706 16.6152H212.497C212.399 17.6113 212.132 18.4512 211.696 19.1348C211.26 19.8118 210.674 20.3262 209.938 20.6777C209.209 21.0228 208.35 21.1953 207.36 21.1953C206.572 21.1953 205.856 21.0456 205.212 20.7461C204.574 20.4401 204.024 20.0104 203.561 19.457C203.106 18.8971 202.754 18.2298 202.507 17.4551C202.259 16.6803 202.136 15.8242 202.136 14.8867V12.8945C202.136 11.9505 202.259 11.0944 202.507 10.3262C202.754 9.55143 203.106 8.88737 203.561 8.33398C204.024 7.77409 204.577 7.3444 205.221 7.04492C205.873 6.73893 206.598 6.58594 207.399 6.58594C208.369 6.58594 209.219 6.75846 209.948 7.10352C210.677 7.44857 211.26 7.96289 211.696 8.64648C212.132 9.32357 212.399 10.1602 212.497 11.1562H211.706C211.608 10.3294 211.384 9.63281 211.032 9.06641C210.687 8.49349 210.212 8.05729 209.606 7.75781C209.001 7.45833 208.265 7.30859 207.399 7.30859C206.716 7.30859 206.1 7.44206 205.554 7.70898C205.007 7.9694 204.538 8.34701 204.147 8.8418C203.757 9.33008 203.454 9.91602 203.239 10.5996C203.031 11.2767 202.927 12.0352 202.927 12.875V14.8867C202.927 15.7135 203.031 16.472 203.239 17.1621C203.447 17.8457 203.744 18.4349 204.128 18.9297C204.512 19.418 204.977 19.7988 205.524 20.0723C206.071 20.3392 206.683 20.4727 207.36 20.4727C208.226 20.4727 208.965 20.3359 209.577 20.0625C210.189 19.7826 210.671 19.3561 211.022 18.7832C211.38 18.2103 211.608 17.4876 211.706 16.6152ZM217.374 6.78125V21H216.583V6.78125H217.374ZM232.476 6.78125V21H231.685L222.896 8.13867V21H222.095V6.78125H222.896L231.685 19.623V6.78125H232.476Z" fill="#EEEEEE"/>
</g>
<defs>
<clipPath id="clip0_1_2">
<rect width="234" height="27" fill="white"/>
</clipPath>
</defs>
</svg>
