<?xml version="1.0" encoding="UTF-8" standalone="no"?>
<svg
   width="235"
   height="26"
   viewBox="0 0 235 26"
   fill="none"
   version="1.1"
   id="svg13"
   sodipodi:docname="logotext.svg"
   inkscape:version="1.2.2 (732a01da63, 2022-12-09)"
   xmlns:inkscape="http://www.inkscape.org/namespaces/inkscape"
   xmlns:sodipodi="http://sodipodi.sourceforge.net/DTD/sodipodi-0.dtd"
   xmlns="http://www.w3.org/2000/svg"
   xmlns:svg="http://www.w3.org/2000/svg">
  <sodipodi:namedview
     id="namedview15"
     pagecolor="#ffffff"
     bordercolor="#000000"
     borderopacity="0.25"
     inkscape:showpageshadow="2"
     inkscape:pageopacity="0.0"
     inkscape:pagecheckerboard="0"
     inkscape:deskcolor="#d1d1d1"
     showgrid="false"
     inkscape:zoom="7.6680851"
     inkscape:cx="117.56521"
     inkscape:cy="13.106271"
     inkscape:window-width="2880"
     inkscape:window-height="1676"
     inkscape:window-x="-12"
     inkscape:window-y="-12"
     inkscape:window-maximized="1"
     inkscape:current-layer="svg13" />
  <g
     clip-path="url(#clip0_67_2)"
     id="g6"
     transform="translate(-1.0432852,0.65205329)">
    <path
       d="M 2.69,13.95 -0.1,11.34 2.69,8.76 V 2.31 L 6.92,-0.270002 H 9.89 L 4.37,3.15 v 5.91 l -2.52,2.28 2.52,2.25 v 7.98 l 5.52,3.42 H 6.92 L 2.69,22.41 Z M 8.98438,3.75 h 3.42002 l 6.18,5.82 v 4.53 l -5.82,-5.49 V 21 H 8.98438 Z m 20.67002,0 h -3.39 l -6.21,5.82 v 4.53 l 5.82,-5.49 V 21 h 3.78 z m 6.3201,18.66 -4.29,2.58 h -2.94 l 5.49,-3.42 v -7.98 l 2.55,-2.25 -2.55,-2.28 V 3.15 l -5.49,-3.420002 h 2.94 L 35.9745,2.31 v 6.45 l 2.73,2.58 -2.73,2.61 z"
       fill="#00adb5"
       id="path2" />
    <path
       d="m 49.4414,5.78125 h 2.1875 L 55.7402,16.748 59.8418,5.78125 h 2.1875 L 56.5996,20 h -1.7383 z m -0.9961,0 h 2.0801 l 0.3613,9.49215 V 20 h -2.4414 z m 12.5,0 h 2.0899 V 20 H 60.584 v -4.7266 z m 8.2172,0 V 20 H 66.7113 V 5.78125 Z m 12.0453,9.58985 h 2.4414 c -0.0781,0.931 -0.3385,1.7611 -0.7812,2.4902 -0.4427,0.7227 -1.0645,1.2923 -1.8653,1.709 -0.8007,0.4167 -1.7741,0.625 -2.9199,0.625 -0.8789,0 -1.6699,-0.1562 -2.373,-0.4687 -0.7032,-0.319 -1.3054,-0.7683 -1.8067,-1.3477 -0.5013,-0.5859 -0.8854,-1.2923 -1.1523,-2.1191 -0.2604,-0.8269 -0.3906,-1.7513 -0.3906,-2.7735 v -1.1816 c 0,-1.0221 0.1334,-1.9466 0.4003,-2.77345 0.2735,-0.82682 0.6641,-1.5332 1.1719,-2.11914 0.5078,-0.59245 1.1166,-1.04492 1.8262,-1.35742 0.7161,-0.3125 1.5202,-0.46875 2.4121,-0.46875 1.1328,0 2.0898,0.20833 2.8711,0.625 0.7812,0.41666 1.3867,0.99284 1.8164,1.72851 0.4362,0.73568 0.7031,1.57878 0.8008,2.52935 H 81.2176 C 81.1525,9.85677 81.0092,9.33268 80.7879,8.89648 80.573,8.46029 80.254,8.12826 79.8309,7.90039 79.4077,7.66602 78.8543,7.54883 78.1707,7.54883 c -0.5599,0 -1.0482,0.10416 -1.4648,0.3125 -0.4167,0.20833 -0.765,0.51432 -1.045,0.91797 -0.2799,0.40364 -0.4915,0.90169 -0.6347,1.4941 -0.1367,0.586 -0.2051,1.2565 -0.2051,2.0118 v 1.2011 c 0,0.7162 0.0618,1.3672 0.1855,1.9532 0.1302,0.5794 0.3256,1.0774 0.586,1.4941 0.2669,0.4167 0.6054,0.7389 1.0156,0.9668 0.4102,0.2279 0.9017,0.3418 1.4746,0.3418 0.6966,0 1.2598,-0.1107 1.6895,-0.332 0.4362,-0.2214 0.7649,-0.5437 0.9863,-0.9668 0.2279,-0.4297 0.3776,-0.9538 0.4492,-1.5723 z m 14.6625,-3.6523 v 1.9433 H 88.3215 V 11.7188 Z M 88.927,5.78125 V 20 H 86.4758 V 5.78125 Z m 8.8281,0 V 20 H 95.3137 V 5.78125 Z M 106.988,7.67578 102.74,20 h -2.569 l 5.352,-14.21875 h 1.641 z M 110.543,20 106.285,7.67578 106.099,5.78125 h 1.651 L 113.121,20 Z m -0.205,-5.2734 v 1.9433 h -7.735 v -1.9433 z m 13.881,3.33 V 20 H 117.08 V 18.0566 Z M 117.764,5.78125 V 20 h -2.452 V 5.78125 Z m 16.43,10.55665 c 0,-0.293 -0.046,-0.5534 -0.137,-0.7813 -0.085,-0.2278 -0.238,-0.4362 -0.459,-0.625 -0.221,-0.1888 -0.534,-0.3711 -0.937,-0.5468 -0.398,-0.1823 -0.905,-0.3679 -1.524,-0.5567 -0.677,-0.2083 -1.302,-0.4394 -1.875,-0.6933 -0.566,-0.2605 -1.061,-0.5599 -1.484,-0.8985 -0.423,-0.345 -0.752,-0.7389 -0.987,-1.1816 -0.234,-0.4492 -0.351,-0.9668 -0.351,-1.55275 0,-0.57942 0.12,-1.10677 0.361,-1.58203 0.248,-0.47526 0.596,-0.88541 1.045,-1.23047 0.456,-0.35156 0.993,-0.62174 1.611,-0.81054 0.619,-0.19532 1.303,-0.29297 2.051,-0.29297 1.055,0 1.963,0.19531 2.725,0.58594 0.768,0.39062 1.357,0.91471 1.767,1.57226 0.417,0.65755 0.625,1.38346 0.625,2.17774 h -2.431 c 0,-0.46876 -0.101,-0.88217 -0.303,-1.24024 -0.195,-0.36458 -0.495,-0.65104 -0.898,-0.85937 -0.398,-0.20834 -0.902,-0.3125 -1.514,-0.3125 -0.58,0 -1.061,0.08789 -1.445,0.26367 -0.385,0.17578 -0.671,0.41341 -0.86,0.71289 -0.189,0.29948 -0.283,0.63802 -0.283,1.01562 0,0.26693 0.062,0.51105 0.186,0.73245 0.123,0.2148 0.312,0.4166 0.566,0.6054 0.254,0.1823 0.573,0.3549 0.957,0.5176 0.384,0.1628 0.837,0.319 1.357,0.4688 0.788,0.2343 1.475,0.4948 2.061,0.7812 0.586,0.28 1.074,0.599 1.465,0.9571 0.39,0.358 0.683,0.7649 0.879,1.2207 0.195,0.4492 0.293,0.9602 0.293,1.5332 0,0.5989 -0.121,1.1393 -0.362,1.6211 -0.241,0.4752 -0.586,0.8821 -1.035,1.2207 -0.443,0.332 -0.976,0.5891 -1.601,0.7714 -0.619,0.1758 -1.309,0.2637 -2.071,0.2637 -0.683,0 -1.357,-0.0911 -2.021,-0.2734 -0.658,-0.1823 -1.257,-0.459 -1.797,-0.8301 -0.54,-0.3776 -0.97,-0.8464 -1.289,-1.4063 C 126.16,17.1191 126,16.4583 126,15.7031 h 2.452 c 0,0.4623 0.078,0.8561 0.234,1.1817 0.163,0.3255 0.387,0.5924 0.674,0.8007 0.286,0.2019 0.618,0.3516 0.996,0.4493 0.384,0.0976 0.794,0.1464 1.23,0.1464 0.573,0 1.052,-0.0813 1.436,-0.2441 0.39,-0.1628 0.683,-0.3906 0.879,-0.6836 0.195,-0.293 0.293,-0.6315 0.293,-1.0156 z m 7.68,-10.55665 V 20 h -2.451 V 5.78125 Z m 8.545,0 -5.762,6.84575 -3.281,3.4765 -0.43,-2.4316 2.344,-2.8907 4.14,-4.99995 z M 147.782,20 143.104,13.2617 144.794,11.5918 150.692,20 Z M 155.277,5.78125 V 20 h -2.452 V 5.78125 Z m 4.34,0 h 0.83 l 5.625,13.08595 5.625,-13.08595 h 0.83 L 166.375,20 h -0.616 z m -0.244,0 h 0.742 l 0.049,7.60745 V 20 h -0.791 z m 12.675,0 h 0.743 V 20 H 172 V 13.3887 Z M 181.672,6.38672 176.613,20 h -0.84 l 5.342,-14.21875 h 0.655 z M 186.457,20 181.408,6.38672 181.311,5.78125 h 0.644 L 187.307,20 Z m -1.25,-4.873 v 0.7324 h -7.295 V 15.127 Z m 4.877,-9.34575 h 4.561 c 0.937,0 1.761,0.15951 2.471,0.47852 0.709,0.31901 1.263,0.7845 1.66,1.39648 0.403,0.61198 0.605,1.36393 0.605,2.25586 0,0.68359 -0.146,1.30209 -0.439,1.85549 -0.293,0.5534 -0.69,1.0123 -1.192,1.3769 -0.501,0.3581 -1.067,0.5925 -1.699,0.7032 l -0.342,0.1269 h -5.244 l -0.019,-0.7226 h 4.599 c 0.788,0 1.442,-0.1596 1.963,-0.4786 0.528,-0.319 0.921,-0.7324 1.182,-1.2402 0.267,-0.5143 0.4,-1.0547 0.4,-1.62109 0,-0.70964 -0.159,-1.3151 -0.478,-1.81641 -0.313,-0.50781 -0.765,-0.89843 -1.358,-1.17187 -0.586,-0.27995 -1.289,-0.41992 -2.109,-0.41992 h -3.77 V 20 h -0.791 z M 199.137,20 l -3.808,-6.3086 0.878,-0.0098 3.77,6.1817 V 20 Z m 13.569,-4.3848 h 0.791 c -0.098,0.9961 -0.365,1.836 -0.801,2.5196 -0.436,0.677 -1.022,1.1914 -1.758,1.5429 -0.729,0.3451 -1.588,0.5176 -2.578,0.5176 -0.788,0 -1.504,-0.1497 -2.148,-0.4492 -0.638,-0.306 -1.188,-0.7357 -1.651,-1.2891 -0.455,-0.5599 -0.807,-1.2272 -1.054,-2.0019 -0.248,-0.7748 -0.371,-1.6309 -0.371,-2.5684 v -1.9922 c 0,-0.944 0.123,-1.8001 0.371,-2.56833 0.247,-0.77474 0.599,-1.4388 1.054,-1.99219 0.463,-0.55989 1.016,-0.98958 1.66,-1.28906 0.652,-0.30599 1.377,-0.45898 2.178,-0.45898 0.97,0 1.82,0.17252 2.549,0.51758 0.729,0.34505 1.312,0.85937 1.748,1.54296 0.436,0.67709 0.703,1.51368 0.801,2.50972 h -0.791 c -0.098,-0.82677 -0.322,-1.52339 -0.674,-2.08979 -0.345,-0.57292 -0.82,-1.00912 -1.426,-1.3086 -0.605,-0.29948 -1.341,-0.44922 -2.207,-0.44922 -0.683,0 -1.299,0.13347 -1.845,0.40039 -0.547,0.26042 -1.016,0.63803 -1.407,1.13282 -0.39,0.48828 -0.693,1.07422 -0.908,1.75781 -0.208,0.67709 -0.312,1.43559 -0.312,2.27539 v 2.0117 c 0,0.8268 0.104,1.5853 0.312,2.2754 0.208,0.6836 0.505,1.2728 0.889,1.7676 0.384,0.4883 0.849,0.8691 1.396,1.1426 0.547,0.2669 1.159,0.4004 1.836,0.4004 0.866,0 1.605,-0.1368 2.217,-0.4102 0.612,-0.2799 1.094,-0.7064 1.445,-1.2793 0.358,-0.5729 0.586,-1.2956 0.684,-2.168 z m 5.668,-9.83395 V 20 h -0.791 V 5.78125 Z m 15.102,0 V 20 h -0.791 L 223.896,7.13867 V 20 h -0.801 V 5.78125 h 0.801 L 232.685,18.623 V 5.78125 Z"
       fill="#eeeeee"
       id="path4" />
  </g>
  <defs
     id="defs11">
    <clipPath
       id="clip0_67_2">
      <rect
         width="235"
         height="26"
         fill="white"
         id="rect8" />
    </clipPath>
  </defs>
</svg>
